<svg width="195" height="188" viewBox="0 0 195 188" fill="none" xmlns="http://www.w3.org/2000/svg">
    <g style="mix-blend-mode:multiply">
        <path opacity="0.09" d="M84.6433 100.095L166.675 143.358L84.6433 186.625L2.6084 143.358L84.6433 100.095Z" fill="#A7B1F2"/>
        <path opacity="0.18" d="M87.2507 98.7197L169.286 141.983L87.2507 185.247L5.21582 141.983L87.2507 98.7197Z" fill="#A7B1F2"/>
        <path opacity="0.27" d="M89.8591 97.3447L171.894 140.608L89.8591 183.872L7.82422 140.608L89.8591 97.3447Z" fill="#A7B1F2"/>
        <path opacity="0.36" d="M92.4675 95.9692L174.502 139.233L92.4675 182.496L10.4326 139.233L92.4675 95.9692Z" fill="#A7B1F2"/>
        <path opacity="0.45" d="M95.074 94.594L177.109 137.857L95.074 181.121L13.0391 137.857L95.074 94.594Z" fill="#A7B1F2"/>
        <path opacity="0.55" d="M97.6821 93.219L179.717 136.482L97.6821 179.746L15.6504 136.482L97.6821 93.219Z" fill="#A7B1F2"/>
        <path opacity="0.64" d="M100.291 91.844L182.325 135.107L100.291 178.371L18.2588 135.107L100.291 91.844Z" fill="#A7B1F2"/>
        <path opacity="0.73" d="M102.897 90.4656L184.932 133.729L102.897 176.996L20.8652 133.729L102.897 90.4656Z" fill="#A7B1F2"/>
        <path opacity="0.82" d="M105.51 89.0906L187.541 132.354L105.51 175.618L23.4746 132.354L105.51 89.0906Z" fill="#A7B1F2"/>
        <path opacity="0.91" d="M108.118 87.7155L190.15 130.979L108.118 174.242L26.083 130.979L108.118 87.7155Z" fill="#A7B1F2"/>
        <path d="M110.724 86.3405L192.756 129.604L110.724 172.867L28.6895 129.604L110.724 86.3405Z" fill="#A7B1F2"/>
    </g>
    <path d="M77.6289 68.9972L110.657 86.4137L192.585 43.2069L110.657 0L77.6289 17.4166V68.9972Z" fill="url(#paint0_linear_5515_2834)"/>
    <path d="M28.7295 129.604L110.657 172.811V86.4139L77.6101 68.9873L28.7295 94.7743V129.604Z" fill="url(#paint1_linear_5515_2834)"/>
    <path d="M110.656 172.811L192.584 129.604V43.2069L110.656 86.4138V172.811Z" fill="#E3E5F9"/>
    <path d="M170.171 65.8241V95.7896C170.171 97.0348 169.215 98.5497 168.034 99.1723C166.853 99.795 165.896 99.2889 165.896 98.047V68.0815C165.896 66.8363 166.853 65.3214 168.034 64.6987C169.215 64.0761 170.171 64.5822 170.171 65.8241Z" fill="#BFCFFF"/>
    <path d="M167.482 87.6955V97.098C167.482 97.4176 167.729 97.5475 168.032 97.3877C168.335 97.2279 168.581 96.8383 168.581 96.5187V87.1162C168.581 86.7965 168.335 86.6667 168.032 86.8265C167.729 86.9863 167.482 87.3759 167.482 87.6955ZM167.482 74.1212V77.9234C167.482 78.2431 167.729 78.3729 168.032 78.2131C168.335 78.0533 168.581 77.6637 168.581 77.3441V73.5418C168.581 73.2222 168.335 73.0923 168.032 73.2522C167.729 73.412 167.482 73.8015 167.482 74.1212ZM167.482 67.3423V71.1446C167.482 71.4642 167.729 71.5941 168.032 71.4343C168.335 71.2744 168.581 70.8849 168.581 70.5653V66.763C168.581 66.4433 168.335 66.3135 168.032 66.4733C167.729 66.6331 167.482 67.0227 167.482 67.3423Z" fill="white"/>
    <path d="M176.274 62.6012V92.5667C176.274 93.8119 175.317 95.3268 174.136 95.9494C172.956 96.5721 171.999 96.066 171.999 94.8241V64.8586C171.999 63.6134 172.956 62.0985 174.136 61.4758C175.317 60.8532 176.274 61.3593 176.274 62.6012Z" fill="#338DFF"/>
    <path d="M173.588 84.476V93.8785C173.588 94.1982 173.834 94.328 174.137 94.1682C174.44 94.0084 174.687 93.6188 174.687 93.2992V83.8967C174.687 83.5771 174.44 83.4472 174.137 83.607C173.834 83.7668 173.588 84.1564 173.588 84.476ZM173.588 70.9017V74.704C173.588 75.0236 173.834 75.1534 174.137 74.9936C174.44 74.8338 174.687 74.4443 174.687 74.1246V70.3223C174.687 70.0027 174.44 69.8729 174.137 70.0327C173.834 70.1925 173.588 70.582 173.588 70.9017ZM173.588 64.1228V67.9251C173.588 68.2447 173.834 68.3746 174.137 68.2148C174.44 68.055 174.687 67.6654 174.687 67.3458V63.5435C174.687 63.2239 174.44 63.094 174.137 63.2538C173.834 63.4136 173.588 63.8032 173.588 64.1228Z" fill="#42EAFF"/>
    <path d="M155.853 122.442C155.853 123.817 156.91 124.373 158.214 123.687C159.518 123.002 160.576 121.327 160.576 119.955C160.576 118.583 159.518 118.024 158.214 118.71C156.91 119.396 155.853 121.07 155.853 122.442Z" fill="#338DFF"/>
    <path d="M152.583 126.128C153.609 124.741 153.791 123.081 152.989 122.42C152.186 121.759 150.703 122.348 149.676 123.735C148.649 125.122 148.467 126.783 149.27 127.443C150.072 128.104 151.556 127.516 152.583 126.128Z" fill="#42EAFF"/>
    <path d="M145.502 129.86C146.529 128.473 146.711 126.812 145.908 126.152C145.106 125.491 143.623 126.079 142.596 127.466C141.569 128.854 141.387 130.514 142.19 131.175C142.992 131.835 144.476 131.247 145.502 129.86Z" fill="#42EAFF"/>
    <path d="M138.422 133.595C139.449 132.208 139.631 130.547 138.828 129.887C138.026 129.226 136.543 129.815 135.516 131.202C134.489 132.589 134.307 134.249 135.11 134.91C135.912 135.571 137.395 134.982 138.422 133.595Z" fill="#42EAFF"/>
    <path d="M131.343 137.326C132.37 135.939 132.552 134.279 131.749 133.618C130.947 132.957 129.463 133.546 128.437 134.933C127.41 136.32 127.228 137.98 128.031 138.641C128.833 139.302 130.316 138.713 131.343 137.326Z" fill="#BFCFFF"/>
    <path d="M155.853 129.338C155.853 130.713 156.91 131.269 158.214 130.583C159.518 129.897 160.576 128.222 160.576 126.851C160.576 125.479 159.518 124.919 158.214 125.605C156.91 126.291 155.853 127.966 155.853 129.338Z" fill="#42EAFF"/>
    <path d="M152.583 133.024C153.609 131.637 153.791 129.977 152.989 129.316C152.186 128.655 150.703 129.244 149.676 130.631C148.649 132.018 148.467 133.678 149.27 134.339C150.072 135 151.556 134.411 152.583 133.024Z" fill="#BFCFFF"/>
    <path d="M145.504 136.759C146.531 135.372 146.713 133.712 145.91 133.051C145.108 132.39 143.625 132.979 142.598 134.366C141.571 135.753 141.389 137.413 142.192 138.074C142.994 138.735 144.477 138.146 145.504 136.759Z" fill="#BFCFFF"/>
    <path d="M134.611 140.541C134.611 141.916 135.669 142.472 136.973 141.787C138.277 141.101 139.335 139.426 139.335 138.054C139.335 136.682 138.277 136.123 136.973 136.809C135.669 137.495 134.611 139.17 134.611 140.541Z" fill="#338DFF"/>
    <path d="M131.343 144.225C132.37 142.838 132.552 141.178 131.749 140.517C130.947 139.856 129.463 140.445 128.437 141.832C127.41 143.219 127.228 144.879 128.031 145.54C128.833 146.201 130.316 145.612 131.343 144.225Z" fill="#338DFF"/>
    <path d="M28.7295 94.7743L77.629 68.9873L159.557 112.194L110.657 137.984L28.7295 94.7743Z" fill="url(#paint2_linear_5515_2834)"/>
    <path d="M77.6289 17.4166L159.556 60.6268V112.194L77.6289 68.9872V17.4166Z" fill="url(#paint3_linear_5515_2834)"/>
    <path d="M57.6594 65.0184L43.1929 72.6463L28.7295 65.0184L43.1929 57.3872L57.6594 65.0184Z" fill="#2CF0FF"/>
    <path d="M57.6589 80.2707L43.1924 87.8986V72.6462L57.6589 65.0183V80.2707Z" fill="#42DDFF"/>
    <path d="M43.1929 87.8986L28.7295 80.2707V65.0183L43.1929 72.6462V87.8986Z" fill="#32B4FF"/>
    <path d="M97.2688 65.0184L82.8022 72.6463L68.3389 65.0184L82.8022 57.3872L97.2688 65.0184Z" fill="#2CF0FF"/>
    <path d="M97.2683 80.2707L82.8018 87.8986V72.6462L97.2683 65.0183V80.2707Z" fill="#42DDFF"/>
    <path d="M82.8022 87.8986L68.3389 80.2707V65.0183L82.8022 72.6462V87.8986Z" fill="#32B4FF"/>
    <path d="M76.8371 75.7895L62.3738 83.4207L47.9072 75.7895L62.3738 68.1616L76.8371 75.7895Z" fill="#2CF0FF"/>
    <path d="M76.8374 91.0452L62.374 98.673V83.4206L76.8374 75.7894V91.0452Z" fill="#42DDFF"/>
    <path d="M62.3738 98.673L47.9072 91.0452V75.7894L62.3738 83.4206V98.673Z" fill="#32B4FF"/>
    <path d="M76.8371 32.8788L62.3738 40.5066L47.9072 32.8788L62.3738 25.2476L76.8371 32.8788Z" fill="#2CF0FF"/>
    <path d="M76.8374 48.1312L62.374 55.7591V40.5067L76.8374 32.8788V48.1312Z" fill="#42DDFF"/>
    <path d="M62.3738 55.7591L47.9072 48.1312V32.8788L62.3738 40.5067V55.7591Z" fill="#32B4FF"/>
    <path d="M57.6594 43.5631L43.1929 51.1909L28.7295 43.5631L43.1929 35.9352L57.6594 43.5631Z" fill="#2CF0FF"/>
    <path d="M57.6589 58.8154L43.1924 66.4433V51.1909L57.6589 43.563V58.8154Z" fill="#42DDFF"/>
    <path d="M43.1929 66.4433L28.7295 58.8154V43.563L43.1929 51.1909V66.4433Z" fill="#32B4FF"/>
    <path d="M97.2688 43.5631L82.8022 51.1909L68.3389 43.5631L82.8022 35.9352L97.2688 43.5631Z" fill="#2CF0FF"/>
    <path d="M97.2683 58.8154L82.8018 66.4433V51.1909L97.2683 43.563V58.8154Z" fill="#42DDFF"/>
    <path d="M82.8022 66.4433L68.3389 58.8154V43.563L82.8022 51.1909V66.4433Z" fill="#32B4FF"/>
    <path d="M76.8371 54.3373L62.3738 61.9651L47.9072 54.3373L62.3738 46.7061L76.8371 54.3373Z" fill="#2CF0FF"/>
    <path d="M76.8374 69.5896L62.374 77.2175V61.965L76.8374 54.3372V69.5896Z" fill="#42DDFF"/>
    <path d="M62.3738 77.2175L47.9072 69.5896V54.3372L62.3738 61.965V77.2175Z" fill="#32B4FF"/>
    <path d="M144.793 68.4146L110.66 86.4138L76.5234 68.4146L110.66 50.412L144.793 68.4146Z" fill="url(#paint4_linear_5515_2834)"/>
    <path d="M144.792 104.41L110.659 122.412V86.4139L144.792 68.4147V104.41Z" fill="#E3E5F9"/>
    <path d="M110.66 122.412L76.5234 104.41V68.4147L110.66 86.4139V122.412Z" fill="url(#paint5_linear_5515_2834)"/>
    <path d="M116.636 109.957L138.819 98.2568C139.855 97.7108 140.698 96.379 140.698 95.2869V81.8591C140.698 80.767 139.858 80.3242 138.819 80.8702L116.636 92.5701C115.601 93.1161 114.758 94.4479 114.758 95.54V108.968C114.758 110.06 115.598 110.503 116.636 109.957Z" fill="url(#paint6_linear_5515_2834)"/>
    <path d="M116.636 109.957L138.819 98.2568C139.855 97.7108 140.698 96.379 140.698 95.2869V81.8591C140.698 80.767 139.858 80.3242 138.819 80.8702L116.636 92.5701C115.601 93.1161 114.758 94.4479 114.758 95.54V108.968C114.758 110.06 115.598 110.503 116.636 109.957Z" fill="#338DFF"/>
    <path d="M115.651 104L115.37 103.404L118.875 101.556L120.737 96.6454L122.521 99.4622L123.544 98.9361L124.693 100.754L125.843 97.7209L126.957 97.1316L130.197 88.5947L134.718 95.7432L136.079 92.1506L139.801 90.1896L140.085 90.7855L136.577 92.6334L134.857 97.1682L130.339 90.0164L127.456 97.6143L126.342 98.2037L124.832 102.176L123.323 99.7885L122.3 100.315L120.88 98.0672L119.374 102.039L115.651 104Z" fill="white"/>
    <path d="M172.856 170.67C171.154 169.455 169.146 166.701 168.451 165.256C167.63 163.545 169.259 162.589 170.412 162.882L175.757 165.536L176.003 168.929C176.003 170.803 173.803 171.346 172.856 170.67Z" fill="#1E4ABF"/>
    <path d="M173.308 167.637C171.89 167.637 170.703 166.468 170.624 164.96C169.952 152.401 169.617 137.815 174.167 123.618C174.644 122.133 176.168 121.337 177.577 121.836C178.985 122.339 179.739 123.947 179.266 125.432C175.026 138.67 175.357 152.611 176.001 164.64C176.083 166.205 174.95 167.544 173.466 167.634C173.415 167.634 173.362 167.637 173.311 167.637H173.308Z" fill="#F3ABC7"/>
    <path d="M182.988 170.507C185.018 170.507 188.98 170.071 190.588 169.492C192.264 168.886 192.116 167.241 190.594 166.835L181.76 164.867L181.435 168.11C181.315 169.269 181.678 170.507 182.988 170.507Z" fill="#1E4ABF"/>
    <path d="M184.481 167.637C184.43 167.637 184.38 167.637 184.326 167.634C182.842 167.544 181.709 166.205 181.791 164.64C182.435 152.611 182.767 138.67 178.526 125.432C178.05 123.947 178.807 122.336 180.216 121.836C181.624 121.334 183.149 122.133 183.625 123.618C188.175 137.815 187.837 152.401 187.168 164.96C187.086 166.472 185.902 167.637 184.484 167.637H184.481Z" fill="#F3ABC7"/>
    <path d="M177.137 102.669C177.339 104.533 179.707 102.868 179.943 102.625C180.701 101.84 181.974 99.2558 180.101 98.2603C179.479 97.9273 178.128 97.944 177.632 98.4401C176.909 99.1626 177.007 101.52 177.137 102.672V102.669Z" fill="#F3ABC7"/>
    <path d="M177.845 103.534L181.075 99.9517L181.491 106.877H178.464L178.925 103.95L177.845 103.534Z" fill="#F3ABC7"/>
    <path d="M185.076 120.055C187.112 127.693 187.734 138.637 187.734 145.143C186.983 148.413 173.025 150.354 170.079 147.234C170.079 136.443 171.339 126.508 173.41 120.055H185.073H185.076Z" fill="#CCD2FF"/>
    <path d="M189.772 127.074L189.983 127.044C190.561 126.961 191.104 127.39 191.195 127.999L191.568 130.513L191.236 132.581C191.218 132.701 191.126 132.794 191.012 132.807C190.864 132.827 190.075 131.865 190.075 131.865C189.945 131.718 189.879 131.519 189.895 131.322L189.999 129.997L189.819 129.711L189.784 130.546C189.778 130.71 189.652 130.839 189.494 130.836C189.345 130.836 189.219 130.72 189.197 130.563L188.875 128.212C188.843 127.64 189.232 127.144 189.772 127.07V127.074Z" fill="#F3ABC7"/>
    <path d="M190.144 128.442C189.336 128.442 188.638 127.803 188.544 126.937C187.732 119.616 186.845 115.354 183.738 109.441C183.306 108.618 183.587 107.583 184.367 107.127C185.146 106.671 186.128 106.967 186.561 107.789C190.217 114.748 191.019 119.952 191.748 126.541C191.852 127.473 191.218 128.319 190.331 128.429C190.267 128.436 190.204 128.442 190.141 128.442H190.144Z" fill="#42C8FF"/>
    <path d="M162.315 96.146L161.036 92.8565C160.985 92.71 160.837 92.6268 160.695 92.6634C160.543 92.7 160.445 92.8565 160.471 93.0197L160.638 94.0085L160.19 93.3027L159.239 92.4503C159.123 92.3471 158.949 92.3604 158.848 92.4803C158.753 92.5968 158.756 92.7699 158.857 92.8798L159.609 93.6955L159.164 93.872C158.971 93.9486 158.82 94.1084 158.747 94.3148L158.573 94.8009C158.491 95.034 158.523 95.2937 158.658 95.5001L158.93 95.9063C158.93 95.9063 159.722 96.9185 160.78 97.1882L162.311 96.1427L162.315 96.146Z" fill="#F3ABC7"/>
    <path d="M185.147 120.152C185.147 116.836 186.464 110.376 186.034 107.679C185.943 107.11 185.504 106.581 184.936 106.361C182.268 105.322 179.748 105.692 174.536 105.319C173.118 108.688 173.232 116.013 173.232 120.874C178.807 123.188 185.15 122.456 185.15 120.155L185.147 120.152Z" fill="#42C8FF"/>
    <path d="M175.404 108.838C175.269 108.838 175.133 108.821 174.994 108.781C166.065 106.321 163.517 102.778 160.818 99.0327C160.606 98.7397 160.395 98.4434 160.174 98.1437C159.628 97.3979 159.76 96.3292 160.464 95.7565C161.172 95.1805 162.185 95.3203 162.728 96.0628C162.952 96.3691 163.17 96.6721 163.388 96.9717C165.942 100.521 167.96 103.324 175.809 105.485C176.671 105.722 177.188 106.654 176.961 107.563C176.772 108.329 176.118 108.835 175.401 108.835L175.404 108.838Z" fill="#42C8FF"/>
    <path d="M179.174 95.9729C180.689 95.9729 182.16 96.2959 183.354 97.591C183.919 98.2037 184.099 99.1026 183.982 99.9383C183.868 100.761 183.221 101.956 186.634 102.848C188.317 103.288 188.907 104.816 188.743 106.258C188.582 107.676 190.148 109.481 192.453 110.107C194.414 110.639 195.266 113.126 194.028 114.815C188.879 121.846 176.834 116.406 180.664 106.091C179.575 103.611 178.631 101.114 179.461 99.2291C175.35 97.6476 176.9 95.9729 179.174 95.9729Z" fill="#1E4ABF"/>
    <path d="M146.722 100.228L150.716 98.1203C153.014 96.9084 154.877 93.9618 154.877 91.5379V87.3261C154.877 84.9022 153.014 83.92 150.716 85.132L146.722 87.2395C144.423 88.4515 142.561 91.3981 142.561 93.8219V98.0338C142.561 100.458 144.423 101.44 146.722 100.228Z" fill="#42DDFF"/>
    <path d="M156.79 80.9302L159.347 79.5817C160.818 78.806 162.012 76.9181 162.012 75.3699V72.673C162.012 71.1215 160.818 70.4922 159.347 71.268L156.79 72.6164C155.318 73.3922 154.125 75.28 154.125 76.8283V79.5251C154.125 81.0767 155.318 81.706 156.79 80.9302Z" fill="#32B4FF"/>
    <path d="M147.441 73.1592L149.998 71.8107C151.47 71.035 152.663 69.1472 152.663 67.5989V64.902C152.663 63.3505 151.47 62.7212 149.998 63.497L147.441 64.8454C145.97 65.6212 144.776 67.509 144.776 69.0573V71.7541C144.776 73.3057 145.97 73.935 147.441 73.1592Z" fill="#E3E5F9"/>
    <defs>
        <linearGradient id="paint0_linear_5515_2834" x1="192.581" y1="43.2069" x2="77.6289" y2="43.2069" gradientUnits="userSpaceOnUse">
            <stop stop-color="white"/>
            <stop offset="1" stop-color="#E8EAFB"/>
        </linearGradient>
        <linearGradient id="paint1_linear_5515_2834" x1="28.7295" y1="120.897" x2="110.657" y2="120.897" gradientUnits="userSpaceOnUse">
            <stop stop-color="#D9DEFC"/>
            <stop offset="1" stop-color="#CCD6FF"/>
        </linearGradient>
        <linearGradient id="paint2_linear_5515_2834" x1="159.557" y1="103.484" x2="28.7295" y2="103.484" gradientUnits="userSpaceOnUse">
            <stop stop-color="white"/>
            <stop offset="1" stop-color="#E8EAFB"/>
        </linearGradient>
        <linearGradient id="paint3_linear_5515_2834" x1="77.6289" y1="64.8054" x2="159.556" y2="64.8054" gradientUnits="userSpaceOnUse">
            <stop stop-color="#D9DEFC"/>
            <stop offset="1" stop-color="#CCD6FF"/>
        </linearGradient>
        <linearGradient id="paint4_linear_5515_2834" x1="76.5234" y1="68.4146" x2="144.793" y2="68.4146" gradientUnits="userSpaceOnUse">
            <stop stop-color="#E8EAFB"/>
            <stop offset="1" stop-color="white"/>
        </linearGradient>
        <linearGradient id="paint5_linear_5515_2834" x1="76.5234" y1="95.4136" x2="0.316824" y2="95.4136" gradientUnits="userSpaceOnUse">
            <stop stop-color="#D9DEFC"/>
            <stop offset="1" stop-color="#CCD6FF"/>
        </linearGradient>
        <linearGradient id="paint6_linear_5515_2834" x1="139.615" y1="95.4134" x2="112.933" y2="95.4134" gradientUnits="userSpaceOnUse">
            <stop stop-color="#1487FB"/>
            <stop offset="1" stop-color="#22D2FD"/>
        </linearGradient>
    </defs>
</svg>
