<?xml version="1.0" standalone="no"?><!DOCTYPE svg PUBLIC "-//W3C//DTD SVG 1.1//EN" "http://www.w3.org/Graphics/SVG/1.1/DTD/svg11.dtd"><svg t="1731928624870" class="icon" viewBox="0 0 1024 1024" version="1.1" xmlns="http://www.w3.org/2000/svg" p-id="3305" xmlns:xlink="http://www.w3.org/1999/xlink" width="200" height="200"><path d="M577.152 512l432.864 432.864c18.624 18.624 18.624 46.56 0 65.152s-46.56 18.624-65.152 0L512 577.152 79.136 1010.016c-18.624 18.624-46.56 18.624-65.152 0s-18.624-46.56 0-65.152L446.848 512 13.984 79.136c-18.624-18.624-18.624-46.56 0-65.152s46.56-18.624 65.152 0L512 446.848 944.864 13.984c18.624-18.624 46.56-18.624 65.152 0s18.624 46.56 0 65.152L577.152 512z" p-id="3306" fill="#d81e06"></path></svg>