<?xml version="1.0" standalone="no"?><!DOCTYPE svg PUBLIC "-//W3C//DTD SVG 1.1//EN" "http://www.w3.org/Graphics/SVG/1.1/DTD/svg11.dtd"><svg t="1734524769414" class="icon" viewBox="0 0 1024 1024" version="1.1" xmlns="http://www.w3.org/2000/svg" p-id="2277" xmlns:xlink="http://www.w3.org/1999/xlink" width="200" height="200"><path d="M543.978319 543.978319l352.427678 0c17.665335 0 31.975249-14.312984 31.975249-31.978319 0-17.665335-14.308891-31.978319-31.975249-31.978319L543.978319 480.021681l0-352.426655c0-17.665335-14.312984-31.975249-31.978319-31.975249-17.665335 0-31.978319 14.308891-31.978319 31.975249l0 352.426655-352.426655 0c-17.665335 0-31.975249 14.310937-31.975249 31.976272 0 8.833179 3.577478 16.829294 9.363252 22.615067 5.785773 5.785773 13.778818 9.365298 22.611997 9.365298l352.426655 0 0 352.426655c0 8.833179 3.578502 16.826224 9.364275 22.611997s13.781888 9.363252 22.615067 9.363252c17.665335 0 31.977295-14.308891 31.977295-31.975249L543.978319 543.978319z" fill="#3981FF" p-id="2278"></path></svg>