<svg width="35" height="37" viewBox="0 0 35 37" fill="none" xmlns="http://www.w3.org/2000/svg">
<path fill-rule="evenodd" clip-rule="evenodd" d="M27.3546 1.52441C25.0127 0.536598 22.4871 0.0211182 19.8912 0.0211182C9.2772 0.0211182 0.672852 8.62546 0.672852 19.2395C0.672852 26.8317 5.11616 33.6166 11.8993 36.7222C12.4015 36.9521 12.9949 36.7314 13.2248 36.2292C13.4547 35.7271 13.234 35.1336 12.7319 34.9037C6.65367 32.1209 2.67285 26.0422 2.67285 19.2395C2.67285 9.73003 10.3818 2.02112 19.8912 2.02112C22.2189 2.02112 24.4803 2.48268 26.5774 3.36719C27.0862 3.58183 27.6728 3.34331 27.8874 2.83444C28.102 2.32557 27.8635 1.73905 27.3546 1.52441ZM20.2832 33.4223C28.0842 33.4223 34.4082 27.0983 34.4082 19.2973C34.4082 11.4963 28.0842 5.17232 20.2832 5.17232C12.4821 5.17232 6.15817 11.4963 6.15817 19.2973C6.15817 27.0983 12.4821 33.4223 20.2832 33.4223Z" fill="url(#paint0_linear_0_2280)"/>
<defs>
<linearGradient id="paint0_linear_0_2280" x1="0.672852" y1="0.0211182" x2="0.672852" y2="36.8132" gradientUnits="userSpaceOnUse">
<stop stop-color="#397CFE"/>
<stop offset="1" stop-color="#3C7EFE" stop-opacity="0.678704"/>
</linearGradient>
</defs>
</svg>
