<svg width="1070" height="43" viewBox="0 0 1070 43" fill="none" xmlns="http://www.w3.org/2000/svg">
<g clip-path="url(#clip0_0_957)">
<g filter="url(#filter0_d_0_957)">
<path fill-rule="evenodd" clip-rule="evenodd" d="M1049.17 0.859863H533.167V42.8599H1049.17L1069.83 21.8599L1049.17 0.859863Z" fill="#3981FF"/>
</g>
<g filter="url(#filter1_d_0_957)">
<path fill-rule="evenodd" clip-rule="evenodd" d="M6 0.859863C2.68629 0.859863 0 3.54615 0 6.85986V36.8599C0 40.1736 2.68629 42.8599 6 42.8599H534L554.666 21.8599L534 0.859863H6Z" fill="#F5F6F7"/>
</g>
<path d="M245.708 16.6499H246.938V27.3599H245.303V18.6149C244.658 19.2299 243.833 19.6799 242.843 19.9649V18.3449C243.323 18.2249 243.818 18.0149 244.358 17.7149C244.898 17.3849 245.348 17.0399 245.708 16.6499ZM250.391 25.2149C250.691 25.2149 250.961 25.3199 251.186 25.5299C251.396 25.7399 251.516 26.0099 251.516 26.3399C251.516 26.6399 251.396 26.9099 251.186 27.1349C250.961 27.3299 250.691 27.4349 250.391 27.4349C250.061 27.4349 249.806 27.3299 249.611 27.1349C249.386 26.9099 249.281 26.6399 249.281 26.3399C249.281 26.0099 249.386 25.7399 249.611 25.5299C249.806 25.3199 250.061 25.2149 250.391 25.2149ZM258.498 15.0599H259.968V19.5749H265.518V20.9549H259.968V26.9849H266.673V28.3649H253.233V26.9849H258.498V15.0599ZM269.778 20.9549C269.343 21.4949 268.878 22.0199 268.368 22.5299L267.903 21.0149C269.433 19.3049 270.573 17.3249 271.308 15.0449L272.658 15.6749C272.283 16.7999 271.788 17.8799 271.188 18.9149V28.9349H269.778V20.9549ZM272.643 16.8599H275.523L275.928 15.0449L277.323 15.1799C277.203 15.7649 277.068 16.3199 276.948 16.8599H281.268V18.2399H276.588C276.438 18.7349 276.303 19.1999 276.168 19.6499H281.883V21.0149H275.718C275.508 21.5849 275.313 22.1099 275.103 22.6049H281.073V23.8349C280.473 24.7949 279.558 25.7549 278.298 26.7299C278.928 27.0599 279.543 27.4199 280.128 27.7949L279.318 29.0249C277.488 27.7949 275.598 26.8349 273.678 26.1299L274.443 25.0049C275.343 25.3349 276.213 25.7099 277.053 26.0999C278.103 25.3799 278.943 24.6599 279.558 23.9249H273.258C273.648 22.9949 274.008 22.0199 274.353 21.0149H271.983V19.6499H274.788C274.923 19.1849 275.058 18.7199 275.178 18.2399H272.643V16.8599ZM291.738 18.9599H288.468V17.6249H290.493C290.118 16.8749 289.713 16.2149 289.293 15.6299L290.478 15.0749C290.913 15.7199 291.333 16.4249 291.738 17.2049L290.913 17.6249H293.103C293.523 16.8149 293.883 15.9449 294.198 15.0149L295.563 15.4799C295.248 16.2899 294.903 16.9949 294.513 17.6249H296.433V18.9599H293.163V20.8499H295.983V22.1849H293.163V24.1349H296.838V25.4849H293.163V28.9499H291.738V25.4849H288.108V24.1349H291.738V22.1849H288.933V20.8499H291.738V18.9599ZM286.533 21.6299V28.9199H285.168V21.8549C284.748 22.9949 284.253 24.0599 283.653 25.0199L282.888 23.8499C283.893 22.4999 284.628 20.9699 285.078 19.2449H283.413V17.8799H285.168V15.0749H286.533V17.8799H287.913V19.2449H286.533V20.0249C287.133 20.6549 287.748 21.3599 288.378 22.1399L287.613 23.2799C287.193 22.6199 286.833 22.0649 286.533 21.6299ZM301.563 15.2699C301.983 15.8699 302.358 16.4999 302.688 17.1899L301.653 17.6549H303.993C304.293 16.8299 304.503 15.9449 304.638 15.0149L306.063 15.1949C305.913 16.0649 305.703 16.8899 305.463 17.6549H308.148L307.233 17.1449C307.773 16.6049 308.223 15.9899 308.583 15.2699L309.828 15.7349C309.453 16.4549 309.003 17.0999 308.463 17.6549H310.593V18.9749H304.953C304.758 19.3949 304.548 19.7849 304.338 20.1749H311.418V21.4949H308.163C308.973 22.3799 310.203 23.1749 311.868 23.8649L310.953 25.0349C309.993 24.5099 309.168 23.9699 308.478 23.4149V25.2599C308.463 25.9649 308.013 26.3399 307.113 26.3849C306.348 26.3849 305.628 26.3699 304.938 26.3399L304.623 25.1249C305.343 25.1699 305.988 25.1999 306.543 25.1999C306.903 25.1999 307.083 25.0649 307.083 24.8099V23.9699H302.718V26.9399C302.718 27.2399 302.928 27.4049 303.378 27.4049H307.878C308.463 27.4049 308.823 27.2999 308.973 27.1049C309.108 26.8649 309.213 26.3849 309.303 25.6949L310.698 26.1599C310.548 27.3749 310.338 28.1099 310.038 28.3649C309.723 28.5749 309.153 28.6949 308.313 28.6949H302.748C301.758 28.6949 301.278 28.2749 301.278 27.4499V23.6849C300.528 24.2549 299.718 24.7649 298.833 25.1999L298.023 23.9399C299.478 23.3099 300.693 22.4999 301.668 21.4949H298.458V20.1749H302.733C303.003 19.7849 303.228 19.3799 303.438 18.9749H299.313V17.6549H301.443C301.083 16.9049 300.693 16.2599 300.273 15.6899L301.563 15.2699ZM303.468 21.4949C303.123 21.9449 302.748 22.3499 302.358 22.7399H307.728C307.308 22.3199 306.948 21.9149 306.678 21.4949H303.468Z" fill="#999999"/>
<path d="M769.675 16.4399C770.665 16.4399 771.475 16.7249 772.12 17.2949C772.75 17.8649 773.08 18.6299 773.08 19.5599C773.08 20.4899 772.72 21.3299 772.03 22.0799C771.655 22.4699 770.92 23.0549 769.81 23.8049C768.445 24.7199 767.665 25.5449 767.47 26.2649H773.095V27.3599H765.955C765.955 26.3849 766.3 25.4999 767.02 24.7049C767.44 24.2249 768.205 23.5799 769.345 22.7999C770.185 22.1999 770.74 21.7649 771.025 21.4649C771.565 20.8799 771.85 20.2349 771.85 19.5449C771.85 18.8849 771.655 18.3899 771.265 18.0299C770.875 17.6699 770.32 17.4899 769.63 17.4899C768.895 17.4899 768.325 17.7299 767.935 18.2399C767.515 18.7199 767.29 19.4399 767.275 20.3849H766.045C766.045 19.1849 766.39 18.2249 767.05 17.5199C767.71 16.7999 768.595 16.4399 769.675 16.4399ZM776 25.5749C776.24 25.5749 776.465 25.6649 776.645 25.8449C776.825 26.0249 776.915 26.2349 776.915 26.5049C776.915 26.7599 776.825 26.9699 776.645 27.1499C776.465 27.3299 776.24 27.4199 776 27.4199C775.73 27.4199 775.52 27.3299 775.355 27.1499C775.175 26.9699 775.085 26.7599 775.085 26.5049C775.085 26.2349 775.175 26.0249 775.355 25.8449C775.52 25.6649 775.73 25.5749 776 25.5749ZM792.285 24.8399C792.18 26.3999 792.015 27.4049 791.775 27.8699C791.535 28.3199 791.07 28.5599 790.35 28.5599H787.38C786.66 28.5599 786.3 28.0799 786.3 27.1349V20.7749H790.395V16.7699H786.045V15.7499H791.445V21.8249H787.35V26.7449C787.35 27.2549 787.5 27.5249 787.815 27.5399H790.17C790.59 27.5399 790.86 27.3299 790.98 26.9099C791.1 26.5049 791.175 25.6949 791.22 24.4949L792.285 24.8399ZM778.725 15.7349H785.55V16.7549H783.6V18.4949H785.31V28.7999H784.35V27.9899H780.075V28.7999H779.115V18.4949H780.75V16.7549H778.725V15.7349ZM780.075 26.9699H784.35V25.5149H780.075V26.9699ZM780.96 19.4849H780.075V24.5249H784.35V23.2199H783.585C782.955 23.2199 782.64 22.8749 782.64 22.1849V19.4849H781.695V20.4599C781.665 22.0649 781.335 23.2349 780.705 23.9849L780.135 23.4599C780.675 22.8299 780.945 21.8399 780.96 20.4599V19.4849ZM781.68 18.4949H782.67V16.7549H781.68V18.4949ZM784.35 22.3799V19.4849H783.39V21.9899C783.39 22.2449 783.51 22.3799 783.765 22.3799H784.35ZM794.04 19.3499H799.875L799.965 18.4799H795.045V15.6749H805.905V18.4799H801.045L800.955 19.3499H806.925V20.1749H800.835C800.775 20.4749 800.73 20.7599 800.67 21.0299H805.02V27.6449H807.195V28.5149H793.77V27.6449H795.945V21.0299H799.59C799.65 20.7449 799.695 20.4599 799.755 20.1749H794.04V19.3499ZM796.995 27.6449H803.955V26.6549H796.995V27.6449ZM796.995 25.9799H803.955V25.0349H796.995V25.9799ZM796.995 24.3449H803.955V23.3999H796.995V24.3449ZM796.995 22.7249H803.955V21.7799H796.995V22.7249ZM804.885 17.7149V16.4699H802.65V17.7149H804.885ZM801.66 17.7149V16.4699H799.29V17.7149H801.66ZM798.315 17.7149V16.4699H796.08V17.7149H798.315ZM815.025 22.2149H813.615V21.2099H817.5V22.2149H816.09V26.2799C816.75 26.1299 817.41 25.9649 818.04 25.7849V26.7899C816.735 27.1649 815.325 27.4799 813.825 27.7349L813.555 26.7149C814.05 26.6549 814.545 26.5799 815.025 26.4899V22.2149ZM820.71 28.6349C820.2 28.6349 819.735 28.2449 819.345 27.4649C818.895 26.5649 818.565 25.3499 818.355 23.7899C818.19 22.4699 818.085 20.8199 818.025 18.8549H813.27V17.8049H817.995C817.965 16.9349 817.965 16.0199 817.965 15.0599H819.015C819.015 16.0349 819.015 16.9499 819.045 17.8049H822.03V18.8549H819.06C819.135 21.4349 819.3 23.4149 819.54 24.8249C819.87 26.5349 820.26 27.4049 820.71 27.4649C821.01 27.4049 821.325 26.4899 821.625 24.7049L822.48 25.3949C821.985 27.5549 821.4 28.6349 820.71 28.6349ZM820.305 15.0449C820.95 15.7649 821.445 16.3949 821.805 16.9349L821.055 17.4599C820.68 16.8749 820.17 16.2299 819.54 15.5099L820.305 15.0449ZM810.405 15.2549C811.365 16.0199 812.16 16.7849 812.82 17.5649L812.085 18.3149C811.485 17.5799 810.675 16.7999 809.655 15.9899L810.405 15.2549ZM808.605 19.6949H811.755V26.2349C812.205 25.7999 812.655 25.3199 813.135 24.7949L813.42 25.9349C812.595 26.8349 811.725 27.6299 810.795 28.3199L810.375 27.3599C810.585 27.1799 810.705 26.9699 810.705 26.7449V20.7299H808.605V19.6949ZM826.92 15.3149C827.37 15.9449 827.775 16.6049 828.105 17.3099L827.19 17.7149C826.815 16.9349 826.395 16.2449 825.945 15.6449L826.92 15.3149ZM834.27 15.3149L835.23 15.6749C834.84 16.4549 834.345 17.1599 833.76 17.7599L832.905 17.2649C833.46 16.7099 833.91 16.0649 834.27 15.3149ZM824.895 17.8199H829.665C829.965 16.9649 830.19 16.0499 830.34 15.0749L831.405 15.2099C831.255 16.1399 831.03 17.0099 830.76 17.8199H836.085V18.8099H830.385C830.145 19.3499 829.89 19.8599 829.605 20.3399H836.91V21.3299H833.37C834.18 22.3499 835.515 23.2499 837.36 24.0599L836.655 24.9449C835.575 24.3749 834.66 23.7749 833.91 23.1449V25.1849C833.895 25.8749 833.475 26.2499 832.65 26.2799C831.885 26.2799 831.15 26.2649 830.43 26.2349L830.19 25.2899C830.94 25.3349 831.615 25.3649 832.245 25.3649C832.635 25.3649 832.845 25.1999 832.845 24.8849V23.7599H828.03V27.1499C828.03 27.4799 828.255 27.6599 828.72 27.6599H833.535C834.165 27.6599 834.555 27.5399 834.705 27.3299C834.855 27.0599 834.975 26.5499 835.065 25.7999L836.115 26.1449C835.995 27.3149 835.785 28.0499 835.47 28.3199C835.17 28.5299 834.63 28.6499 833.835 28.6499H828.285C827.385 28.6499 826.935 28.2599 826.935 27.4949V23.3999C826.125 24.0599 825.225 24.6149 824.235 25.0949L823.62 24.1499C825.24 23.4449 826.56 22.4999 827.61 21.3299H824.04V20.3399H828.375C828.705 19.8599 829.005 19.3499 829.26 18.8099H824.895V17.8199ZM828.945 21.3299C828.525 21.8699 828.09 22.3649 827.61 22.8149H833.55C833.025 22.3349 832.605 21.8399 832.275 21.3299H828.945Z" fill="white"/>
</g>
<defs>
<filter id="filter0_d_0_957" x="533.167" y="0.859863" width="542.666" height="42" filterUnits="userSpaceOnUse" color-interpolation-filters="sRGB">
<feFlood flood-opacity="0" result="BackgroundImageFix"/>
<feColorMatrix in="SourceAlpha" type="matrix" values="0 0 0 0 0 0 0 0 0 0 0 0 0 0 0 0 0 0 127 0" result="hardAlpha"/>
<feOffset dx="6"/>
<feColorMatrix type="matrix" values="0 0 0 0 1 0 0 0 0 1 0 0 0 0 1 0 0 0 1 0"/>
<feBlend mode="normal" in2="BackgroundImageFix" result="effect1_dropShadow_0_957"/>
<feBlend mode="normal" in="SourceGraphic" in2="effect1_dropShadow_0_957" result="shape"/>
</filter>
<filter id="filter1_d_0_957" x="0" y="0.859863" width="560.666" height="42" filterUnits="userSpaceOnUse" color-interpolation-filters="sRGB">
<feFlood flood-opacity="0" result="BackgroundImageFix"/>
<feColorMatrix in="SourceAlpha" type="matrix" values="0 0 0 0 0 0 0 0 0 0 0 0 0 0 0 0 0 0 127 0" result="hardAlpha"/>
<feOffset dx="6"/>
<feColorMatrix type="matrix" values="0 0 0 0 1 0 0 0 0 1 0 0 0 0 1 0 0 0 1 0"/>
<feBlend mode="normal" in2="BackgroundImageFix" result="effect1_dropShadow_0_957"/>
<feBlend mode="normal" in="SourceGraphic" in2="effect1_dropShadow_0_957" result="shape"/>
</filter>
<clipPath id="clip0_0_957">
<rect width="1069.83" height="42" fill="white" transform="translate(0 0.859863)"/>
</clipPath>
</defs>
</svg>
