<svg width="1071" height="43" viewBox="0 0 1071 43" fill="none" xmlns="http://www.w3.org/2000/svg">
<g clip-path="url(#clip0_0_1749)">
<g filter="url(#filter0_d_0_1749)">
<path fill-rule="evenodd" clip-rule="evenodd" d="M1049.81 0.859863H533.808V42.8599H1049.81L1070.47 21.8599L1049.81 0.859863Z" fill="#F0F2F5"/>
</g>
<g filter="url(#filter1_d_0_1749)">
<path fill-rule="evenodd" clip-rule="evenodd" d="M6.64111 0.859863C3.3274 0.859863 0.641113 3.54615 0.641113 6.85986V36.8599C0.641113 40.1736 3.3274 42.8599 6.64111 42.8599H534.641L555.307 21.8599L534.641 0.859863H6.64111Z" fill="#3981FF"/>
</g>
<path d="M246.349 16.6499H247.579V27.3599H245.944V18.6149C245.299 19.2299 244.474 19.6799 243.484 19.9649V18.3449C243.964 18.2249 244.459 18.0149 244.999 17.7149C245.539 17.3849 245.989 17.0399 246.349 16.6499ZM251.032 25.2149C251.332 25.2149 251.602 25.3199 251.827 25.5299C252.037 25.7399 252.157 26.0099 252.157 26.3399C252.157 26.6399 252.037 26.9099 251.827 27.1349C251.602 27.3299 251.332 27.4349 251.032 27.4349C250.702 27.4349 250.447 27.3299 250.252 27.1349C250.027 26.9099 249.922 26.6399 249.922 26.3399C249.922 26.0099 250.027 25.7399 250.252 25.5299C250.447 25.3199 250.702 25.2149 251.032 25.2149ZM259.139 15.0599H260.609V19.5749H266.159V20.9549H260.609V26.9849H267.314V28.3649H253.874V26.9849H259.139V15.0599ZM270.419 20.9549C269.984 21.4949 269.519 22.0199 269.009 22.5299L268.544 21.0149C270.074 19.3049 271.214 17.3249 271.949 15.0449L273.299 15.6749C272.924 16.7999 272.429 17.8799 271.829 18.9149V28.9349H270.419V20.9549ZM273.284 16.8599H276.164L276.569 15.0449L277.964 15.1799C277.844 15.7649 277.709 16.3199 277.589 16.8599H281.909V18.2399H277.229C277.079 18.7349 276.944 19.1999 276.809 19.6499H282.524V21.0149H276.359C276.149 21.5849 275.954 22.1099 275.744 22.6049H281.714V23.8349C281.114 24.7949 280.199 25.7549 278.939 26.7299C279.569 27.0599 280.184 27.4199 280.769 27.7949L279.959 29.0249C278.129 27.7949 276.239 26.8349 274.319 26.1299L275.084 25.0049C275.984 25.3349 276.854 25.7099 277.694 26.0999C278.744 25.3799 279.584 24.6599 280.199 23.9249H273.899C274.289 22.9949 274.649 22.0199 274.994 21.0149H272.624V19.6499H275.429C275.564 19.1849 275.699 18.7199 275.819 18.2399H273.284V16.8599ZM292.379 18.9599H289.109V17.6249H291.134C290.759 16.8749 290.354 16.2149 289.934 15.6299L291.119 15.0749C291.554 15.7199 291.974 16.4249 292.379 17.2049L291.554 17.6249H293.744C294.164 16.8149 294.524 15.9449 294.839 15.0149L296.204 15.4799C295.889 16.2899 295.544 16.9949 295.154 17.6249H297.074V18.9599H293.804V20.8499H296.624V22.1849H293.804V24.1349H297.479V25.4849H293.804V28.9499H292.379V25.4849H288.749V24.1349H292.379V22.1849H289.574V20.8499H292.379V18.9599ZM287.174 21.6299V28.9199H285.809V21.8549C285.389 22.9949 284.894 24.0599 284.294 25.0199L283.529 23.8499C284.534 22.4999 285.269 20.9699 285.719 19.2449H284.054V17.8799H285.809V15.0749H287.174V17.8799H288.554V19.2449H287.174V20.0249C287.774 20.6549 288.389 21.3599 289.019 22.1399L288.254 23.2799C287.834 22.6199 287.474 22.0649 287.174 21.6299ZM302.204 15.2699C302.624 15.8699 302.999 16.4999 303.329 17.1899L302.294 17.6549H304.634C304.934 16.8299 305.144 15.9449 305.279 15.0149L306.704 15.1949C306.554 16.0649 306.344 16.8899 306.104 17.6549H308.789L307.874 17.1449C308.414 16.6049 308.864 15.9899 309.224 15.2699L310.469 15.7349C310.094 16.4549 309.644 17.0999 309.104 17.6549H311.234V18.9749H305.594C305.399 19.3949 305.189 19.7849 304.979 20.1749H312.059V21.4949H308.804C309.614 22.3799 310.844 23.1749 312.509 23.8649L311.594 25.0349C310.634 24.5099 309.809 23.9699 309.119 23.4149V25.2599C309.104 25.9649 308.654 26.3399 307.754 26.3849C306.989 26.3849 306.269 26.3699 305.579 26.3399L305.264 25.1249C305.984 25.1699 306.629 25.1999 307.184 25.1999C307.544 25.1999 307.724 25.0649 307.724 24.8099V23.9699H303.359V26.9399C303.359 27.2399 303.569 27.4049 304.019 27.4049H308.519C309.104 27.4049 309.464 27.2999 309.614 27.1049C309.749 26.8649 309.854 26.3849 309.944 25.6949L311.339 26.1599C311.189 27.3749 310.979 28.1099 310.679 28.3649C310.364 28.5749 309.794 28.6949 308.954 28.6949H303.389C302.399 28.6949 301.919 28.2749 301.919 27.4499V23.6849C301.169 24.2549 300.359 24.7649 299.474 25.1999L298.664 23.9399C300.119 23.3099 301.334 22.4999 302.309 21.4949H299.099V20.1749H303.374C303.644 19.7849 303.869 19.3799 304.079 18.9749H299.954V17.6549H302.084C301.724 16.9049 301.334 16.2599 300.914 15.6899L302.204 15.2699ZM304.109 21.4949C303.764 21.9449 303.389 22.3499 302.999 22.7399H308.369C307.949 22.3199 307.589 21.9149 307.319 21.4949H304.109Z" fill="white"/>
<path d="M770.317 16.4399C771.307 16.4399 772.117 16.7249 772.762 17.2949C773.392 17.8649 773.722 18.6299 773.722 19.5599C773.722 20.4899 773.362 21.3299 772.672 22.0799C772.297 22.4699 771.562 23.0549 770.452 23.8049C769.087 24.7199 768.307 25.5449 768.112 26.2649H773.737V27.3599H766.597C766.597 26.3849 766.942 25.4999 767.662 24.7049C768.082 24.2249 768.847 23.5799 769.987 22.7999C770.827 22.1999 771.382 21.7649 771.667 21.4649C772.207 20.8799 772.492 20.2349 772.492 19.5449C772.492 18.8849 772.297 18.3899 771.907 18.0299C771.517 17.6699 770.962 17.4899 770.272 17.4899C769.537 17.4899 768.967 17.7299 768.577 18.2399C768.157 18.7199 767.932 19.4399 767.917 20.3849H766.687C766.687 19.1849 767.032 18.2249 767.692 17.5199C768.352 16.7999 769.237 16.4399 770.317 16.4399ZM776.641 25.5749C776.881 25.5749 777.106 25.6649 777.286 25.8449C777.466 26.0249 777.556 26.2349 777.556 26.5049C777.556 26.7599 777.466 26.9699 777.286 27.1499C777.106 27.3299 776.881 27.4199 776.641 27.4199C776.371 27.4199 776.161 27.3299 775.996 27.1499C775.816 26.9699 775.726 26.7599 775.726 26.5049C775.726 26.2349 775.816 26.0249 775.996 25.8449C776.161 25.6649 776.371 25.5749 776.641 25.5749ZM792.926 24.8399C792.821 26.3999 792.656 27.4049 792.416 27.8699C792.176 28.3199 791.711 28.5599 790.991 28.5599H788.021C787.301 28.5599 786.941 28.0799 786.941 27.1349V20.7749H791.036V16.7699H786.686V15.7499H792.086V21.8249H787.991V26.7449C787.991 27.2549 788.141 27.5249 788.456 27.5399H790.811C791.231 27.5399 791.501 27.3299 791.621 26.9099C791.741 26.5049 791.816 25.6949 791.861 24.4949L792.926 24.8399ZM779.366 15.7349H786.191V16.7549H784.241V18.4949H785.951V28.7999H784.991V27.9899H780.716V28.7999H779.756V18.4949H781.391V16.7549H779.366V15.7349ZM780.716 26.9699H784.991V25.5149H780.716V26.9699ZM781.601 19.4849H780.716V24.5249H784.991V23.2199H784.226C783.596 23.2199 783.281 22.8749 783.281 22.1849V19.4849H782.336V20.4599C782.306 22.0649 781.976 23.2349 781.346 23.9849L780.776 23.4599C781.316 22.8299 781.586 21.8399 781.601 20.4599V19.4849ZM782.321 18.4949H783.311V16.7549H782.321V18.4949ZM784.991 22.3799V19.4849H784.031V21.9899C784.031 22.2449 784.151 22.3799 784.406 22.3799H784.991ZM794.681 19.3499H800.516L800.606 18.4799H795.686V15.6749H806.546V18.4799H801.686L801.596 19.3499H807.566V20.1749H801.476C801.416 20.4749 801.371 20.7599 801.311 21.0299H805.661V27.6449H807.836V28.5149H794.411V27.6449H796.586V21.0299H800.231C800.291 20.7449 800.336 20.4599 800.396 20.1749H794.681V19.3499ZM797.636 27.6449H804.596V26.6549H797.636V27.6449ZM797.636 25.9799H804.596V25.0349H797.636V25.9799ZM797.636 24.3449H804.596V23.3999H797.636V24.3449ZM797.636 22.7249H804.596V21.7799H797.636V22.7249ZM805.526 17.7149V16.4699H803.291V17.7149H805.526ZM802.301 17.7149V16.4699H799.931V17.7149H802.301ZM798.956 17.7149V16.4699H796.721V17.7149H798.956ZM815.666 22.2149H814.256V21.2099H818.141V22.2149H816.731V26.2799C817.391 26.1299 818.051 25.9649 818.681 25.7849V26.7899C817.376 27.1649 815.966 27.4799 814.466 27.7349L814.196 26.7149C814.691 26.6549 815.186 26.5799 815.666 26.4899V22.2149ZM821.351 28.6349C820.841 28.6349 820.376 28.2449 819.986 27.4649C819.536 26.5649 819.206 25.3499 818.996 23.7899C818.831 22.4699 818.726 20.8199 818.666 18.8549H813.911V17.8049H818.636C818.606 16.9349 818.606 16.0199 818.606 15.0599H819.656C819.656 16.0349 819.656 16.9499 819.686 17.8049H822.671V18.8549H819.701C819.776 21.4349 819.941 23.4149 820.181 24.8249C820.511 26.5349 820.901 27.4049 821.351 27.4649C821.651 27.4049 821.966 26.4899 822.266 24.7049L823.121 25.3949C822.626 27.5549 822.041 28.6349 821.351 28.6349ZM820.946 15.0449C821.591 15.7649 822.086 16.3949 822.446 16.9349L821.696 17.4599C821.321 16.8749 820.811 16.2299 820.181 15.5099L820.946 15.0449ZM811.046 15.2549C812.006 16.0199 812.801 16.7849 813.461 17.5649L812.726 18.3149C812.126 17.5799 811.316 16.7999 810.296 15.9899L811.046 15.2549ZM809.246 19.6949H812.396V26.2349C812.846 25.7999 813.296 25.3199 813.776 24.7949L814.061 25.9349C813.236 26.8349 812.366 27.6299 811.436 28.3199L811.016 27.3599C811.226 27.1799 811.346 26.9699 811.346 26.7449V20.7299H809.246V19.6949ZM827.561 15.3149C828.011 15.9449 828.416 16.6049 828.746 17.3099L827.831 17.7149C827.456 16.9349 827.036 16.2449 826.586 15.6449L827.561 15.3149ZM834.911 15.3149L835.871 15.6749C835.481 16.4549 834.986 17.1599 834.401 17.7599L833.546 17.2649C834.101 16.7099 834.551 16.0649 834.911 15.3149ZM825.536 17.8199H830.306C830.606 16.9649 830.831 16.0499 830.981 15.0749L832.046 15.2099C831.896 16.1399 831.671 17.0099 831.401 17.8199H836.726V18.8099H831.026C830.786 19.3499 830.531 19.8599 830.246 20.3399H837.551V21.3299H834.011C834.821 22.3499 836.156 23.2499 838.001 24.0599L837.296 24.9449C836.216 24.3749 835.301 23.7749 834.551 23.1449V25.1849C834.536 25.8749 834.116 26.2499 833.291 26.2799C832.526 26.2799 831.791 26.2649 831.071 26.2349L830.831 25.2899C831.581 25.3349 832.256 25.3649 832.886 25.3649C833.276 25.3649 833.486 25.1999 833.486 24.8849V23.7599H828.671V27.1499C828.671 27.4799 828.896 27.6599 829.361 27.6599H834.176C834.806 27.6599 835.196 27.5399 835.346 27.3299C835.496 27.0599 835.616 26.5499 835.706 25.7999L836.756 26.1449C836.636 27.3149 836.426 28.0499 836.111 28.3199C835.811 28.5299 835.271 28.6499 834.476 28.6499H828.926C828.026 28.6499 827.576 28.2599 827.576 27.4949V23.3999C826.766 24.0599 825.866 24.6149 824.876 25.0949L824.261 24.1499C825.881 23.4449 827.201 22.4999 828.251 21.3299H824.681V20.3399H829.016C829.346 19.8599 829.646 19.3499 829.901 18.8099H825.536V17.8199ZM829.586 21.3299C829.166 21.8699 828.731 22.3649 828.251 22.8149H834.191C833.666 22.3349 833.246 21.8399 832.916 21.3299H829.586Z" fill="#333333"/>
</g>
<defs>
<filter id="filter0_d_0_1749" x="533.808" y="0.859863" width="542.666" height="42" filterUnits="userSpaceOnUse" color-interpolation-filters="sRGB">
<feFlood flood-opacity="0" result="BackgroundImageFix"/>
<feColorMatrix in="SourceAlpha" type="matrix" values="0 0 0 0 0 0 0 0 0 0 0 0 0 0 0 0 0 0 127 0" result="hardAlpha"/>
<feOffset dx="6"/>
<feColorMatrix type="matrix" values="0 0 0 0 1 0 0 0 0 1 0 0 0 0 1 0 0 0 1 0"/>
<feBlend mode="normal" in2="BackgroundImageFix" result="effect1_dropShadow_0_1749"/>
<feBlend mode="normal" in="SourceGraphic" in2="effect1_dropShadow_0_1749" result="shape"/>
</filter>
<filter id="filter1_d_0_1749" x="0.641113" y="0.859863" width="560.666" height="42" filterUnits="userSpaceOnUse" color-interpolation-filters="sRGB">
<feFlood flood-opacity="0" result="BackgroundImageFix"/>
<feColorMatrix in="SourceAlpha" type="matrix" values="0 0 0 0 0 0 0 0 0 0 0 0 0 0 0 0 0 0 127 0" result="hardAlpha"/>
<feOffset dx="6"/>
<feColorMatrix type="matrix" values="0 0 0 0 1 0 0 0 0 1 0 0 0 0 1 0 0 0 1 0"/>
<feBlend mode="normal" in2="BackgroundImageFix" result="effect1_dropShadow_0_1749"/>
<feBlend mode="normal" in="SourceGraphic" in2="effect1_dropShadow_0_1749" result="shape"/>
</filter>
<clipPath id="clip0_0_1749">
<rect width="1069.83" height="42" fill="white" transform="translate(0.641113 0.859863)"/>
</clipPath>
</defs>
</svg>
