<svg width="1073" height="43" viewBox="0 0 1073 43" fill="none" xmlns="http://www.w3.org/2000/svg">
    <g clip-path="url(#clip0_0_1878)">
        <g filter="url(#filter0_d_0_1878)">
            <path fill-rule="evenodd" clip-rule="evenodd"
                  d="M1051.83 0.364746H700.187V42.3647H1051.83L1072.5 21.3647L1051.83 0.364746Z" fill="#F0F2F5"/>
        </g>
        <g filter="url(#filter1_d_0_1878)">
            <path fill-rule="evenodd" clip-rule="evenodd"
                  d="M700.34 0.364746H348.693V42.3647H700.34L721.006 21.3647L700.34 0.364746Z" fill="#F0F2F5"/>
        </g>
        <g filter="url(#filter2_d_0_1878)">
            <path fill-rule="evenodd" clip-rule="evenodd"
                  d="M6.5 0.364746C3.18629 0.364746 0.5 3.05104 0.5 6.36475V36.3647C0.5 39.6785 3.18629 42.3647 6.5 42.3647H352.147L372.813 21.3647L352.147 0.364746H6.5Z"
                  fill="#3981FF"/>
        </g>
        <path d="M155.032 16.1547H156.262V26.8647H154.627V18.1197C153.982 18.7347 153.157 19.1847 152.167 19.4697V17.8497C152.647 17.7297 153.142 17.5197 153.682 17.2197C154.222 16.8897 154.672 16.5447 155.032 16.1547ZM159.715 24.7197C160.015 24.7197 160.285 24.8247 160.51 25.0347C160.72 25.2447 160.84 25.5147 160.84 25.8447C160.84 26.1447 160.72 26.4147 160.51 26.6397C160.285 26.8347 160.015 26.9397 159.715 26.9397C159.385 26.9397 159.13 26.8347 158.935 26.6397C158.71 26.4147 158.605 26.1447 158.605 25.8447C158.605 25.5147 158.71 25.2447 158.935 25.0347C159.13 24.8247 159.385 24.7197 159.715 24.7197ZM176.147 24.3747C176.027 25.9497 175.847 26.9847 175.607 27.4647C175.382 27.9297 174.902 28.1697 174.152 28.1697H171.047C170.297 28.1697 169.937 27.6597 169.937 26.6547V20.0847H173.957V16.4397H169.787V15.0897H175.322V21.4647H171.332V26.0847C171.332 26.5647 171.437 26.8047 171.662 26.8347H173.912C174.242 26.8347 174.452 26.6247 174.542 26.2197C174.632 25.8147 174.692 25.0497 174.722 23.9247L176.147 24.3747ZM162.452 15.0747H169.382V16.4247H167.567V17.8497H169.187V28.3497H167.927V27.6297H164.027V28.3497H162.767V17.8497H164.357V16.4247H162.452V15.0747ZM164.027 26.2947H167.927V25.1097H164.027V26.2947ZM164.657 19.1397H164.027V22.6797C164.432 22.0497 164.642 21.1497 164.657 19.9647V19.1397ZM164.027 22.9197V23.8197H167.927V22.7997H167.357C166.652 22.7997 166.307 22.4247 166.307 21.7047V19.1397H165.587V19.9647C165.572 21.5697 165.257 22.7397 164.657 23.4897L164.027 22.9197ZM165.572 17.8497H166.352V16.4247H165.572V17.8497ZM167.927 21.7197V19.1397H167.252V21.4197C167.252 21.6147 167.372 21.7197 167.627 21.7197H167.927ZM177.782 18.7497H183.512C183.542 18.5097 183.557 18.2697 183.587 18.0447H178.727V15.0597H189.797V18.0447H185.012C184.982 18.2847 184.967 18.5097 184.937 18.7497H190.742V19.8147H184.757L184.607 20.4897H188.897V27.0297H191.012V28.1397H177.512V27.0297H179.627V20.4897H183.212C183.257 20.2497 183.302 20.0247 183.347 19.8147H177.782V18.7497ZM181.037 27.0297H187.487V26.2347H181.037V27.0297ZM181.037 25.3947H187.487V24.6447H181.037V25.3947ZM181.037 23.7897H187.487V23.0397H181.037V23.7897ZM181.037 22.1847H187.487V21.4497H181.037V22.1847ZM188.447 17.0697V16.0947H186.557V17.0697H188.447ZM185.282 17.0697V16.0947H183.242V17.0697H185.282ZM181.967 17.0697V16.0947H180.077V17.0697H181.967ZM201.062 18.4647H197.792V17.1297H199.817C199.442 16.3797 199.037 15.7197 198.617 15.1347L199.802 14.5797C200.237 15.2247 200.657 15.9297 201.062 16.7097L200.237 17.1297H202.427C202.847 16.3197 203.207 15.4497 203.522 14.5197L204.887 14.9847C204.572 15.7947 204.227 16.4997 203.837 17.1297H205.757V18.4647H202.487V20.3547H205.307V21.6897H202.487V23.6397H206.162V24.9897H202.487V28.4547H201.062V24.9897H197.432V23.6397H201.062V21.6897H198.257V20.3547H201.062V18.4647ZM195.857 21.1347V28.4247H194.492V21.3597C194.072 22.4997 193.577 23.5647 192.977 24.5247L192.212 23.3547C193.217 22.0047 193.952 20.4747 194.402 18.7497H192.737V17.3847H194.492V14.5797H195.857V17.3847H197.237V18.7497H195.857V19.5297C196.457 20.1597 197.072 20.8647 197.702 21.6447L196.937 22.7847C196.517 22.1247 196.157 21.5697 195.857 21.1347ZM210.887 14.7747C211.307 15.3747 211.682 16.0047 212.012 16.6947L210.977 17.1597H213.317C213.617 16.3347 213.827 15.4497 213.962 14.5197L215.387 14.6997C215.237 15.5697 215.027 16.3947 214.787 17.1597H217.472L216.557 16.6497C217.097 16.1097 217.547 15.4947 217.907 14.7747L219.152 15.2397C218.777 15.9597 218.327 16.6047 217.787 17.1597H219.917V18.4797H214.277C214.082 18.8997 213.872 19.2897 213.662 19.6797H220.742V20.9997H217.487C218.297 21.8847 219.527 22.6797 221.192 23.3697L220.277 24.5397C219.317 24.0147 218.492 23.4747 217.802 22.9197V24.7647C217.787 25.4697 217.337 25.8447 216.437 25.8897C215.672 25.8897 214.952 25.8747 214.262 25.8447L213.947 24.6297C214.667 24.6747 215.312 24.7047 215.867 24.7047C216.227 24.7047 216.407 24.5697 216.407 24.3147V23.4747H212.042V26.4447C212.042 26.7447 212.252 26.9097 212.702 26.9097H217.202C217.787 26.9097 218.147 26.8047 218.297 26.6097C218.432 26.3697 218.537 25.8897 218.627 25.1997L220.022 25.6647C219.872 26.8797 219.662 27.6147 219.362 27.8697C219.047 28.0797 218.477 28.1997 217.637 28.1997H212.072C211.082 28.1997 210.602 27.7797 210.602 26.9547V23.1897C209.852 23.7597 209.042 24.2697 208.157 24.7047L207.347 23.4447C208.802 22.8147 210.017 22.0047 210.992 20.9997H207.782V19.6797H212.057C212.327 19.2897 212.552 18.8847 212.762 18.4797H208.637V17.1597H210.767C210.407 16.4097 210.017 15.7647 209.597 15.1947L210.887 14.7747ZM212.792 20.9997C212.447 21.4497 212.072 21.8547 211.682 22.2447H217.052C216.632 21.8247 216.272 21.4197 216.002 20.9997H212.792Z"
              fill="white"/>
        <path d="M504.675 15.9447C505.665 15.9447 506.475 16.2297 507.12 16.7997C507.75 17.3697 508.08 18.1347 508.08 19.0647C508.08 19.9947 507.72 20.8347 507.03 21.5847C506.655 21.9747 505.92 22.5597 504.81 23.3097C503.445 24.2247 502.665 25.0497 502.47 25.7697H508.095V26.8647H500.955C500.955 25.8897 501.3 25.0047 502.02 24.2097C502.44 23.7297 503.205 23.0847 504.345 22.3047C505.185 21.7047 505.74 21.2697 506.025 20.9697C506.565 20.3847 506.85 19.7397 506.85 19.0497C506.85 18.3897 506.655 17.8947 506.265 17.5347C505.875 17.1747 505.32 16.9947 504.63 16.9947C503.895 16.9947 503.325 17.2347 502.935 17.7447C502.515 18.2247 502.29 18.9447 502.275 19.8897H501.045C501.045 18.6897 501.39 17.7297 502.05 17.0247C502.71 16.3047 503.595 15.9447 504.675 15.9447ZM511 25.0797C511.24 25.0797 511.465 25.1697 511.645 25.3497C511.825 25.5297 511.915 25.7397 511.915 26.0097C511.915 26.2647 511.825 26.4747 511.645 26.6547C511.465 26.8347 511.24 26.9247 511 26.9247C510.73 26.9247 510.52 26.8347 510.355 26.6547C510.175 26.4747 510.085 26.2647 510.085 26.0097C510.085 25.7397 510.175 25.5297 510.355 25.3497C510.52 25.1697 510.73 25.0797 511 25.0797ZM518.075 21.1647V22.1847C517.595 22.3947 517.1 22.5897 516.62 22.7697V26.9697C516.62 27.8397 516.215 28.2747 515.405 28.2747H514.1L513.875 27.2097C514.265 27.2547 514.655 27.2847 515.03 27.2847C515.39 27.2847 515.57 27.0897 515.57 26.6997V23.1297C515.03 23.2947 514.49 23.4447 513.95 23.5947L513.695 22.5597C514.325 22.4247 514.955 22.2747 515.57 22.0947V18.4197H513.875V17.3847H515.57V14.6097H516.62V17.3847H518.105V18.4197H516.62V21.7497C517.115 21.5697 517.595 21.3747 518.075 21.1647ZM519.875 20.1297V26.8197C520.595 26.6247 521.24 26.3847 521.84 26.0997L522.035 27.1047C521.03 27.5247 519.875 27.8847 518.585 28.1847L518.315 27.1797C518.645 27.0747 518.81 26.8497 518.81 26.5197V14.7597H519.875V19.0797H521.99V20.1297H519.875ZM525.275 28.1547H524.015C523.145 28.1547 522.71 27.6747 522.71 26.7447V14.6547H523.775V19.1847C524.675 18.8847 525.56 18.4647 526.4 17.9247L527.03 18.8097C525.89 19.4397 524.81 19.9347 523.775 20.2647V26.5197C523.775 26.9247 523.97 27.1347 524.36 27.1347H525.095C525.44 27.1347 525.68 27.0147 525.83 26.8047C526.025 26.5347 526.145 25.7247 526.205 24.3747L527.195 24.6897C527.09 26.3397 526.88 27.3297 526.565 27.6897C526.295 27.9897 525.875 28.1547 525.275 28.1547ZM536.915 17.8647C536.795 18.2247 536.675 18.5547 536.555 18.8697C537.035 20.6097 537.68 22.1397 538.46 23.4297C539.315 21.8847 539.765 20.0247 539.795 17.8647H536.915ZM540.83 17.8647C540.77 20.4597 540.185 22.6347 539.09 24.3897C540.035 25.7097 541.16 26.7447 542.48 27.4947L541.865 28.3947C540.545 27.6447 539.405 26.6097 538.46 25.2897C537.47 26.5647 536.15 27.5847 534.53 28.3497L533.855 27.4647C535.55 26.7147 536.885 25.6947 537.86 24.3747C537.11 23.1597 536.48 21.7497 535.985 20.1447C535.685 20.7147 535.37 21.2247 535.025 21.6747L534.365 20.8347C535.46 19.3047 536.195 17.2197 536.585 14.5947L537.635 14.7747C537.515 15.5097 537.365 16.1997 537.215 16.8297H542V17.8647H540.83ZM530.63 26.0847C531.89 25.6647 533.195 25.1247 534.515 24.4647L534.68 25.4547C533.12 26.2047 531.395 26.9097 529.475 27.5397L529.16 26.6097C529.43 26.4897 529.58 26.2497 529.58 25.8597V20.2647H532.94V16.7097H528.83V15.6747H533.99V21.2547H530.63V26.0847ZM550.025 21.7197H548.615V20.7147H552.5V21.7197H551.09V25.7847C551.75 25.6347 552.41 25.4697 553.04 25.2897V26.2947C551.735 26.6697 550.325 26.9847 548.825 27.2397L548.555 26.2197C549.05 26.1597 549.545 26.0847 550.025 25.9947V21.7197ZM555.71 28.1397C555.2 28.1397 554.735 27.7497 554.345 26.9697C553.895 26.0697 553.565 24.8547 553.355 23.2947C553.19 21.9747 553.085 20.3247 553.025 18.3597H548.27V17.3097H552.995C552.965 16.4397 552.965 15.5247 552.965 14.5647H554.015C554.015 15.5397 554.015 16.4547 554.045 17.3097H557.03V18.3597H554.06C554.135 20.9397 554.3 22.9197 554.54 24.3297C554.87 26.0397 555.26 26.9097 555.71 26.9697C556.01 26.9097 556.325 25.9947 556.625 24.2097L557.48 24.8997C556.985 27.0597 556.4 28.1397 555.71 28.1397ZM555.305 14.5497C555.95 15.2697 556.445 15.8997 556.805 16.4397L556.055 16.9647C555.68 16.3797 555.17 15.7347 554.54 15.0147L555.305 14.5497ZM545.405 14.7597C546.365 15.5247 547.16 16.2897 547.82 17.0697L547.085 17.8197C546.485 17.0847 545.675 16.3047 544.655 15.4947L545.405 14.7597ZM543.605 19.1997H546.755V25.7397C547.205 25.3047 547.655 24.8247 548.135 24.2997L548.42 25.4397C547.595 26.3397 546.725 27.1347 545.795 27.8247L545.375 26.8647C545.585 26.6847 545.705 26.4747 545.705 26.2497V20.2347H543.605V19.1997ZM561.92 14.8197C562.37 15.4497 562.775 16.1097 563.105 16.8147L562.19 17.2197C561.815 16.4397 561.395 15.7497 560.945 15.1497L561.92 14.8197ZM569.27 14.8197L570.23 15.1797C569.84 15.9597 569.345 16.6647 568.76 17.2647L567.905 16.7697C568.46 16.2147 568.91 15.5697 569.27 14.8197ZM559.895 17.3247H564.665C564.965 16.4697 565.19 15.5547 565.34 14.5797L566.405 14.7147C566.255 15.6447 566.03 16.5147 565.76 17.3247H571.085V18.3147H565.385C565.145 18.8547 564.89 19.3647 564.605 19.8447H571.91V20.8347H568.37C569.18 21.8547 570.515 22.7547 572.36 23.5647L571.655 24.4497C570.575 23.8797 569.66 23.2797 568.91 22.6497V24.6897C568.895 25.3797 568.475 25.7547 567.65 25.7847C566.885 25.7847 566.15 25.7697 565.43 25.7397L565.19 24.7947C565.94 24.8397 566.615 24.8697 567.245 24.8697C567.635 24.8697 567.845 24.7047 567.845 24.3897V23.2647H563.03V26.6547C563.03 26.9847 563.255 27.1647 563.72 27.1647H568.535C569.165 27.1647 569.555 27.0447 569.705 26.8347C569.855 26.5647 569.975 26.0547 570.065 25.3047L571.115 25.6497C570.995 26.8197 570.785 27.5547 570.47 27.8247C570.17 28.0347 569.63 28.1547 568.835 28.1547H563.285C562.385 28.1547 561.935 27.7647 561.935 26.9997V22.9047C561.125 23.5647 560.225 24.1197 559.235 24.5997L558.62 23.6547C560.24 22.9497 561.56 22.0047 562.61 20.8347H559.04V19.8447H563.375C563.705 19.3647 564.005 18.8547 564.26 18.3147H559.895V17.3247ZM563.945 20.8347C563.525 21.3747 563.09 21.8697 562.61 22.3197H568.55C568.025 21.8397 567.605 21.3447 567.275 20.8347H563.945Z"
              fill="#333333"/>
        <path d="M854.474 15.9447C855.494 15.9447 856.334 16.1997 856.964 16.7247C857.579 17.2497 857.894 17.9547 857.894 18.8547C857.894 20.0547 857.309 20.8647 856.139 21.2547C856.769 21.4497 857.249 21.7497 857.579 22.1697C857.939 22.5897 858.119 23.1147 858.119 23.7447C858.119 24.7197 857.774 25.5147 857.099 26.1297C856.409 26.7597 855.509 27.0747 854.399 27.0747C853.379 27.0747 852.554 26.8047 851.909 26.2947C851.144 25.6647 850.724 24.7497 850.634 23.5497H851.879C851.909 24.3897 852.194 25.0347 852.719 25.4697C853.169 25.8297 853.724 26.0247 854.399 26.0247C855.164 26.0247 855.779 25.7997 856.244 25.3647C856.664 24.9447 856.889 24.4197 856.889 23.7897C856.889 23.1447 856.679 22.6497 856.259 22.2897C855.839 21.9297 855.269 21.7647 854.519 21.7647H853.649V20.8047H854.474C855.194 20.8047 855.734 20.6397 856.109 20.3247C856.484 19.9947 856.679 19.5297 856.679 18.9297C856.679 18.3297 856.484 17.8647 856.124 17.5347C855.734 17.1747 855.179 17.0097 854.489 17.0097C853.769 17.0097 853.214 17.1897 852.809 17.5797C852.389 17.9697 852.149 18.5247 852.074 19.2447H850.859C850.949 18.2097 851.339 17.3997 851.999 16.8147C852.629 16.2297 853.454 15.9447 854.474 15.9447ZM860.843 25.0797C861.083 25.0797 861.308 25.1697 861.488 25.3497C861.668 25.5297 861.758 25.7397 861.758 26.0097C861.758 26.2647 861.668 26.4747 861.488 26.6547C861.308 26.8347 861.083 26.9247 860.843 26.9247C860.573 26.9247 860.363 26.8347 860.198 26.6547C860.018 26.4747 859.928 26.2647 859.928 26.0097C859.928 25.7397 860.018 25.5297 860.198 25.3497C860.363 25.1697 860.573 25.0797 860.843 25.0797ZM863.553 22.9197H872.688V21.9747H873.768V22.9197H877.068V23.9697H873.768V27.1497C873.768 27.9897 873.303 28.4097 872.403 28.4097H870.483L870.243 27.3447C870.873 27.3897 871.458 27.4197 872.028 27.4197C872.463 27.4197 872.688 27.2397 872.688 26.8797V23.9697H863.553V22.9197ZM874.803 15.1947V18.7647H866.208V19.8447C866.208 20.2497 866.433 20.4597 866.853 20.4597H874.878C875.178 20.4447 875.373 20.3397 875.493 20.1597C875.583 19.9947 875.673 19.6047 875.733 18.9747L876.753 19.3047C876.678 19.9797 876.573 20.4597 876.453 20.7597C876.243 21.2097 875.823 21.4347 875.193 21.4647H866.463C865.563 21.4647 865.128 21.0447 865.128 20.2347V15.1947H874.803ZM866.208 17.7747H873.723V16.1697H866.208V17.7747ZM867.003 24.4197C868.008 25.1997 868.848 25.9947 869.538 26.7747L868.728 27.5847C868.128 26.8197 867.288 26.0097 866.238 25.1547L867.003 24.4197ZM889.383 19.8297V15.7347H890.463V20.8797H885.873V26.3847H890.103V22.2897H891.198V28.2597H890.103V27.4197H879.438V22.2897H880.533V26.3847H884.763V20.8797H880.173V15.7347H881.253V19.8297H884.763V14.5947H885.873V19.8297H889.383ZM898.998 25.3647V26.3847C897.468 26.9397 895.743 27.3897 893.793 27.7497L893.658 26.6997C895.698 26.3697 897.468 25.9197 898.998 25.3647ZM896.223 14.5647L897.228 14.9547C896.463 16.9047 895.683 18.4647 894.903 19.6347C895.608 19.5447 896.313 19.4397 897.033 19.3197C897.318 18.7797 897.618 18.2247 897.918 17.6547L898.863 17.9997C897.498 20.5347 896.358 22.3347 895.443 23.4147C896.583 23.1897 897.708 22.8897 898.818 22.5147V23.4747C897.198 24.0297 895.638 24.4047 894.138 24.5997L893.853 23.6247C894.048 23.5347 894.213 23.4297 894.348 23.3097C894.918 22.7247 895.623 21.7347 896.463 20.3247C895.608 20.4597 894.753 20.5797 893.883 20.6997L893.613 19.7097C893.778 19.6347 893.928 19.4997 894.063 19.3047C894.903 17.9247 895.623 16.3497 896.223 14.5647ZM898.818 16.4697H902.403V14.6547H903.498V16.4697H907.068V17.5197H903.498V19.7397H906.633V20.7897H899.313V19.7397H902.403V17.5197H898.818V16.4697ZM906.198 22.2897V28.3197H905.148V27.5997H900.858V28.3197H899.793V22.2897H906.198ZM900.858 26.5797H905.148V23.3097H900.858V26.5797ZM910.278 15.2097H920.283V21.0147H915.873V22.3797H921.843V23.3997H916.833C917.898 24.7497 919.683 25.9647 922.173 27.0147L921.438 27.9597C918.828 26.5947 916.998 25.0797 915.948 23.3997H915.873V28.3497H914.763V23.3997H914.703C913.563 25.2447 911.703 26.7597 909.093 27.9447L908.478 26.9547C910.923 26.0247 912.693 24.8397 913.788 23.3997H908.793V22.3797H914.763V21.0147H910.278V15.2097ZM919.218 20.0697V18.6147H915.873V20.0697H919.218ZM914.763 20.0697V18.6147H911.358V20.0697H914.763ZM911.358 17.6697H914.763V16.1697H911.358V17.6697ZM915.873 16.1697V17.6697H919.218V16.1697H915.873Z"
              fill="#333333"/>
    </g>
    <defs>
        <filter id="filter0_d_0_1878" x="700.187" y="0.364746" width="378.313" height="42" filterUnits="userSpaceOnUse"
                color-interpolation-filters="sRGB">
            <feFlood flood-opacity="0" result="BackgroundImageFix"/>
            <feColorMatrix in="SourceAlpha" type="matrix" values="0 0 0 0 0 0 0 0 0 0 0 0 0 0 0 0 0 0 127 0"
                           result="hardAlpha"/>
            <feOffset dx="6"/>
            <feColorMatrix type="matrix" values="0 0 0 0 1 0 0 0 0 1 0 0 0 0 1 0 0 0 1 0"/>
            <feBlend mode="normal" in2="BackgroundImageFix" result="effect1_dropShadow_0_1878"/>
            <feBlend mode="normal" in="SourceGraphic" in2="effect1_dropShadow_0_1878" result="shape"/>
        </filter>
        <filter id="filter1_d_0_1878" x="348.693" y="0.364746" width="378.313" height="42" filterUnits="userSpaceOnUse"
                color-interpolation-filters="sRGB">
            <feFlood flood-opacity="0" result="BackgroundImageFix"/>
            <feColorMatrix in="SourceAlpha" type="matrix" values="0 0 0 0 0 0 0 0 0 0 0 0 0 0 0 0 0 0 127 0"
                           result="hardAlpha"/>
            <feOffset dx="6"/>
            <feColorMatrix type="matrix" values="0 0 0 0 1 0 0 0 0 1 0 0 0 0 1 0 0 0 1 0"/>
            <feBlend mode="normal" in2="BackgroundImageFix" result="effect1_dropShadow_0_1878"/>
            <feBlend mode="normal" in="SourceGraphic" in2="effect1_dropShadow_0_1878" result="shape"/>
        </filter>
        <filter id="filter2_d_0_1878" x="0.5" y="0.364746" width="378.313" height="42" filterUnits="userSpaceOnUse"
                color-interpolation-filters="sRGB">
            <feFlood flood-opacity="0" result="BackgroundImageFix"/>
            <feColorMatrix in="SourceAlpha" type="matrix" values="0 0 0 0 0 0 0 0 0 0 0 0 0 0 0 0 0 0 127 0"
                           result="hardAlpha"/>
            <feOffset dx="6"/>
            <feColorMatrix type="matrix" values="0 0 0 0 1 0 0 0 0 1 0 0 0 0 1 0 0 0 1 0"/>
            <feBlend mode="normal" in2="BackgroundImageFix" result="effect1_dropShadow_0_1878"/>
            <feBlend mode="normal" in="SourceGraphic" in2="effect1_dropShadow_0_1878" result="shape"/>
        </filter>
        <clipPath id="clip0_0_1878">
            <rect width="1072" height="42" fill="white" transform="translate(0.5 0.364746)"/>
        </clipPath>
    </defs>
</svg>
